<svg xmlns="http://www.w3.org/2000/svg" xmlns:xlink="http://www.w3.org/1999/xlink" width="30" height="40" viewBox="0 0 30 40">
    <defs>
        <linearGradient id="8hyy6f1b6c" x1="50%" x2="50%" y1="-13.337%" y2="100%">
            <stop offset="0%" stop-color="#FDCD16"/>
            <stop offset="100%" stop-color="#FC9F00"/>
        </linearGradient>
        <filter id="eyd4paf27b" width="220.8%" height="191.6%" x="-60.4%" y="-30.5%" filterUnits="objectBoundingBox">
            <feOffset dy="6" in="SourceAlpha" result="shadowOffsetOuter1"/>
            <feGaussianBlur in="shadowOffsetOuter1" result="shadowBlurOuter1" stdDeviation="5"/>
            <feColorMatrix in="shadowBlurOuter1" values="0 0 0 0 0.992156863 0 0 0 0 0.650980392 0 0 0 0 0.0156862745 0 0 0 0.16092111 0"/>
        </filter>
        <path id="zvolrkx7ga" d="M4.192.258h21.794c2.21 0 4 1.79 4 4v35.291L15.09 31.243.192 39.55V4.257c0-2.208 1.791-4 4-4z"/>
    </defs>
    <g fill="none" fill-rule="evenodd">
        <g>
            <g>
                <g>
                    <g>
                        <g transform="translate(-516 -62) translate(516 62)">
                            <g fill-rule="nonzero">
                                <use fill="#000" filter="url(#eyd4paf27b)" xlink:href="#zvolrkx7ga"/>
                                <use fill="url(#8hyy6f1b6c)" xlink:href="#zvolrkx7ga"/>
                            </g>
                        </g>
                    </g>
                    <g fill-rule="nonzero">
                        <path fill="#6F4E0C" d="M11.934 4.17l-3.959-.364L6.402.19c-.11-.253-.472-.253-.582 0L4.247 3.806.288 4.17c-.277.026-.389.367-.18.549l2.987 2.599-.874 3.841c-.061.269.232.48.472.34L6.11 9.487l3.419 2.01c.239.141.532-.07.471-.339l-.874-3.841 2.987-2.599c.21-.182.097-.523-.18-.549z" transform="translate(-516 -62) translate(516 62) translate(8.889 11.111)"/>
                        <path fill="#563C09" d="M6.66.19c-.114-.253-.491-.253-.606 0L4.418 3.806.3 4.17c-.288.026-.405.367-.187.549L3.22 7.318l-.91 3.841c-.063.269.242.48.491.34l.794-.45c.11-4.305 2.21-7.337 3.874-9.07L6.66.188z" transform="translate(-516 -62) translate(516 62) translate(8.889 11.111)"/>
                    </g>
                </g>
            </g>
        </g>
    </g>
</svg>
