<svg xmlns="http://www.w3.org/2000/svg" width="23" height="23" viewBox="0 0 23 23">
    <g fill="none" fill-rule="evenodd">
        <g fill="#2C2C2C" fill-rule="nonzero">
            <g>
                <g>
                    <path d="M10.826 7.412c0-.372-.301-.674-.674-.674H9.084l1.545-1.545c.193-.193.25-.482.146-.734-.104-.252-.35-.416-.623-.416H7.457c-.372 0-.674.301-.674.674 0 .372.302.674.674.674h1.069L6.98 6.936c-.193.193-.251.482-.147.734.104.252.35.416.623.416h2.695c.373 0 .674-.302.674-.674zM12.25 5.421c.156.377.524.622.931.622h4.029c.556 0 1.007-.45 1.007-1.007 0-.557-.45-1.007-1.007-1.007h-1.598l2.31-2.31c.288-.288.374-.72.218-1.097C17.985.245 17.617 0 17.21 0H13.18c-.557 0-1.007.45-1.007 1.007 0 .557.45 1.007 1.007 1.007h1.597l-2.309 2.31c-.288.288-.375.72-.218 1.097zM20.979 10.781H11.5c-1.115 0-2.021.907-2.021 2.022v2.695c0 .372.301.674.673.674H23v-3.37c0-1.114-.907-2.02-2.021-2.02z" transform="translate(-139 -1094) translate(136 991) translate(3 103)"/>
                    <path d="M8.13 15.498v-.674H1.349V7.412c0-.372-.302-.674-.674-.674C.3 6.738 0 7.04 0 7.412v14.914C0 22.7.301 23 .674 23c.372 0 .674-.301.674-.674V20.26h20.304v2.066c0 .372.302.674.674.674.372 0 .674-.302.674-.674V17.52H10.152c-1.116 0-2.021-.906-2.021-2.022z" transform="translate(-139 -1094) translate(136 991) translate(3 103)"/>
                    <path d="M8.13 11.455c0 1.116-.904 2.022-2.02 2.022-1.117 0-2.022-.906-2.022-2.022 0-1.116.905-2.021 2.021-2.021 1.117 0 2.022.905 2.022 2.021z" transform="translate(-139 -1094) translate(136 991) translate(3 103)"/>
                </g>
            </g>
        </g>
    </g>
</svg>
