<svg xmlns="http://www.w3.org/2000/svg" width="21" height="21" viewBox="0 0 21 21">
    <g fill="none" fill-rule="evenodd">
        <g fill="#000" fill-rule="nonzero">
            <g>
                <g>
                    <path d="M7.536 3.508c.268-.197.26-.182 2.146-1.248l.012-.007C8.705.862 7.091.006 5.34.006 2.396.006 0 2.402 0 5.346v15.442c0 .114.092.206.206.206h2.057c.114 0 .206-.092.206-.206V5.346c0-1.59 1.299-2.882 2.891-2.87.854.005 1.64.398 2.176 1.032zM11.614 14.475c.337-.056.564-.374.508-.71l-.096-.572c-.056-.336-.374-.563-.71-.507-.336.056-.564.374-.507.71l.095.572c.056.336.374.563.71.507zM14.745 12.76c.297-.167.403-.543.236-.84l-.267-.476c-.166-.297-.543-.403-.84-.236-.297.167-.403.543-.236.84l.267.476c.167.298.543.403.84.236zM17.84 10.981c.223-.258.195-.648-.063-.87l-.438-.38c-.258-.223-.648-.195-.871.063-.223.258-.195.648.063.87l.438.38c.258.223.648.195.871-.063zM12.29 16.857c-.049-.338-.362-.571-.7-.522-.337.049-.57.362-.521.7l.086.593c.05.337.363.57.7.521.337-.049.57-.362.522-.7l-.087-.592zM15 15.172c-.129-.316-.488-.468-.804-.34-.317.127-.47.487-.341.803l.21.523c.129.316.489.469.804.34.317-.127.47-.487.341-.803l-.21-.523zM17.67 13.494c-.203-.274-.59-.331-.864-.128-.273.203-.33.59-.127.864l.336.452c.203.274.59.331.863.128.274-.203.331-.59.128-.864l-.336-.452zM20.777 12.227l-.461-.382c-.262-.218-.652-.182-.87.08-.217.263-.18.652.081.87l.461.383c.263.217.652.181.87-.081.217-.263.181-.652-.081-.87z" transform="translate(-385 -1036) translate(136 991) translate(249 45)"/>
                    <path d="M7.645 8.688L14.518 4.8l-.196-.347c-.801-1.417-2.601-1.928-4.032-1.119-1.855 1.05-1.885 1.05-2.143 1.261-1.07.875-1.433 2.448-.698 3.745l.196.348zM16.981 6.176l-.272-.482c-.169-.3-.55-.403-.847-.235l-8.343 4.718c-.295.167-.405.547-.235.847l.273.482c.227.403.737.544 1.14.317l7.968-4.507c.402-.228.544-.737.316-1.14z" transform="translate(-385 -1036) translate(136 991) translate(249 45)"/>
                </g>
            </g>
        </g>
    </g>
</svg>
