<svg xmlns="http://www.w3.org/2000/svg" width="24" height="12" viewBox="0 0 24 12">
    <g fill="none" fill-rule="evenodd">
        <g fill="#2C2C2C" fill-rule="nonzero">
            <g>
                <g>
                    <path d="M7.681 3.84L16.319 3.84 16.319 8.098 7.681 8.098zM22.745 2.682h-.599v6.279h.6c.692 0 1.253-.562 1.254-1.255v-3.77c0-.692-.562-1.253-1.255-1.254zM19.795.027h-2.38v11.884h2.38c.693 0 1.254-.562 1.255-1.255V1.282c0-.693-.562-1.254-1.255-1.255zM2.95 1.282v9.374c0 .693.562 1.254 1.255 1.255h2.38V.027h-2.38C3.512.028 2.95.59 2.95 1.282zM0 3.937v3.77C0 8.398.562 8.96 1.255 8.96h.599V2.682h-.6C.563 2.683.002 3.244 0 3.937z" transform="translate(-648 -1611) translate(137 1501) translate(511 110)"/>
                </g>
            </g>
        </g>
    </g>
</svg>
