<svg xmlns="http://www.w3.org/2000/svg" width="21" height="21" viewBox="0 0 21 21">
    <g fill="none" fill-rule="evenodd">
        <g fill="#2C2C2C" fill-rule="nonzero">
            <g>
                <g>
                    <path d="M.8 16.058L.923 17.294 20.077 17.294 20.2 16.058zM11.115 7.414L16.063 7.414 16.063 12.488 11.115 12.488z" transform="translate(-385 -1544) translate(137 1501) translate(248 43)"/>
                    <path d="M20.323 14.827l.674-6.737c.017-.173-.04-.345-.156-.474-.117-.129-.282-.202-.456-.202h-3.092v5.69c0 .34-.275.615-.615.615H10.5c-.34 0-.615-.276-.615-.615v-5.69H.615c-.174 0-.34.073-.456.202-.117.129-.173.301-.156.474l.674 6.737h19.646zM1.046 18.524l.032.32C1.201 20.074 2.226 21 3.461 21h14.078c1.235 0 2.26-.927 2.383-2.156l.032-.32H1.046zM6.739 4.289c-.001.451-.365.824-.37.827-.12.113-.199.27-.191.442.015.333.27.615.615.615.156 0 .31-.067.424-.174.075-.073.742-.734.752-1.69.004-.414-.12-1.038-.74-1.658-.257-.256-.382-.507-.381-.767 0-.451.365-.824.369-.827.12-.113.2-.27.191-.442C7.394.282 7.138 0 6.793 0c-.156 0-.309.067-.423.174-.076.072-.743.734-.752 1.69-.005.414.12 1.038.74 1.657.257.257.38.508.38.768zM10.445 4.289c0 .451-.365.824-.368.827-.122.113-.2.27-.192.442.015.333.27.615.615.615.156 0 .31-.067.423-.174.076-.073.743-.734.753-1.69.004-.414-.121-1.038-.741-1.658-.256-.256-.38-.507-.38-.767 0-.451.365-.824.368-.827.122-.113.2-.27.192-.442C11.1.282 10.845 0 10.5 0c-.156 0-.31.067-.423.174-.076.072-.743.734-.753 1.69-.004.414.121 1.038.741 1.657.256.257.38.508.38.768zM14.152 4.289c0 .451-.365.824-.369.827-.12.113-.2.27-.191.442.014.333.27.615.615.615.156 0 .309-.067.423-.174.076-.073.743-.734.752-1.69.005-.414-.12-1.038-.74-1.658-.257-.256-.38-.507-.38-.767 0-.451.364-.824.368-.827.121-.113.2-.27.192-.442-.015-.333-.27-.615-.615-.615-.156 0-.31.067-.424.174-.075.072-.742.734-.752 1.69-.004.414.12 1.038.74 1.657.257.257.382.508.381.768z" transform="translate(-385 -1544) translate(137 1501) translate(248 43)"/>
                </g>
            </g>
        </g>
    </g>
</svg>
