<svg xmlns="http://www.w3.org/2000/svg" width="20" height="18" viewBox="0 0 20 18">
    <g fill="none" fill-rule="evenodd">
        <g fill="#2C2C2C" fill-rule="nonzero">
            <g>
                <g>
                    <path d="M18.968 3.186C19.572 2.942 20 2.35 20 1.66c0-.908-.74-1.647-1.65-1.647-.908 0-1.648.739-1.648 1.647 0 .69.427 1.281 1.031 1.526-.556.24-.946.793-.946 1.436v.823c-.636-.824-1.42-1.53-2.317-2.077-.11-.067-.22-.13-.331-.192v-1.02c0-.324-.263-.586-.586-.586-.324 0-.586.262-.586.586v.485c-.764-.28-1.565-.453-2.381-.509v-.756c0-.323-.262-.586-.586-.586-.324 0-.586.263-.586.586v.756c-.816.056-1.617.228-2.38.51v-.486c0-.324-.263-.586-.587-.586-.323 0-.586.262-.586.586v1.02c-.111.062-.222.125-.33.192-.898.548-1.682 1.253-2.318 2.077v-.823c0-.643-.39-1.196-.947-1.436.605-.244 1.032-.836 1.032-1.526 0-.908-.74-1.647-1.649-1.647C.739.013 0 .752 0 1.66c0 .69.427 1.281 1.031 1.526-.556.24-.946.793-.946 1.436V17.37c0 .323.262.586.586.586h1.956c.324 0 .586-.263.586-.586v-1.175h13.574v1.175c0 .323.262.586.586.586h1.956c.324 0 .586-.263.586-.586V4.622c0-.643-.39-1.196-.947-1.436zm-8.382 11.837v-3.952h2.38v3.952h-2.38zm-3.553 0v-3.952h2.381v3.952h-2.38zm-3.82-3.952h2.648v3.952H3.213v-3.952zm10.926 0h2.648v3.952h-2.648v-3.952zm2.445-3.77l.203.396v2.202h-2.648V4.54c1.015.684 1.862 1.624 2.445 2.76zM12.967 3.9v6h-2.381V3.307c.834.065 1.637.268 2.38.592zm-3.553-.592V9.9h-2.38v-6c.743-.324 1.546-.527 2.38-.592zM3.416 7.302c.583-1.137 1.43-2.077 2.445-2.76v5.357H3.213V7.697l.203-.395z" transform="translate(-141 -1607) translate(137 1501) translate(4 106)"/>
                </g>
            </g>
        </g>
    </g>
</svg>
