<svg xmlns="http://www.w3.org/2000/svg" width="26" height="20" viewBox="0 0 26 20">
    <g fill="none" fill-rule="evenodd">
        <g fill-rule="nonzero">
            <g>
                <g transform="translate(-138 -1545) translate(137 1501) translate(1 44)">
                    <path fill="#2C2C2C" d="M15.397 11.792c.09.03.189.042.328.042.333 0 .434-.07.732-.274.406-.278 1.02-.699 2.106-.699 1.085 0 1.7.421 2.105.7.298.204.399.273.732.273.384 0 .458-.093.868-.366l-1.891-3.35 1.27-3.474L24.87 1.88c.437-.375.487-1.033.112-1.47-.375-.436-1.032-.487-1.47-.112L20.085 3.24c-.135.116-.239.265-.3.432L18.23 7.925l-.008.023-2.83 1.536c.341.754.323 1.593.006 2.308z"/>
                    <circle cx="23.443" cy="7.734" r="2.096" fill="#2C2C2C" transform="rotate(-77.117 23.443 7.734)"/>
                    <path fill="#000" d="M23.183 17.93c-.86 0-1.322.316-1.694.57-.326.224-.585.401-1.143.401-.56 0-.817-.177-1.144-.4-.372-.255-.834-.572-1.694-.572s-1.322.317-1.693.571c-.327.224-.585.401-1.144.401-.558 0-.817-.177-1.144-.4-.37-.255-.833-.572-1.693-.572-.86 0-1.322.317-1.693.571-.327.224-.585.401-1.144.401-.558 0-.817-.177-1.144-.4-.37-.255-.833-.572-1.693-.572-.86 0-1.322.317-1.693.571-.327.224-.585.401-1.144.401-.559 0-.817-.177-1.144-.4-.371-.255-.833-.572-1.693-.572-.268 0-.486.218-.486.486 0 .269.218.486.486.486.559 0 .817.177 1.144.401.371.255.833.572 1.693.572.86 0 1.322-.317 1.693-.572.327-.224.585-.4 1.144-.4.559 0 .817.176 1.144.4.371.255.833.572 1.693.572.86 0 1.322-.317 1.693-.572.327-.224.585-.4 1.144-.4.559 0 .817.176 1.144.4.371.255.833.572 1.693.572.86 0 1.322-.317 1.694-.572.326-.224.585-.4 1.143-.4.56 0 .817.176 1.144.4.372.255.834.572 1.694.572s1.322-.317 1.693-.572c.327-.224.585-.4 1.144-.4.268 0 .486-.218.486-.487 0-.268-.218-.486-.486-.486zM11.82 13.742c1.567 0 2.606-1.693 1.836-3.101-.38-.697-1.1-1.091-1.84-1.091-1.569 0-2.607 1.693-1.837 3.101.38.697 1.099 1.09 1.84 1.09zM24.594 12.944c-.322-.188-.736-.353-1.357-.353-.86 0-1.322.316-1.694.57-.327.225-.585.402-1.143.402-.56 0-.817-.177-1.144-.401-.371-.255-.834-.571-1.693-.571-.86 0-1.322.316-1.694.57-.327.225-.585.402-1.144.402-.308 0-.525-.054-.712-.14-.213.263-.477.492-.787.67.341.221.782.442 1.5.442.86 0 1.321-.317 1.693-.571.327-.224.585-.401 1.143-.401.56 0 .817.177 1.144.4.372.255.834.572 1.694.572s1.321-.317 1.693-.571c.327-.224.585-.401 1.143-.401.56 0 .817.177 1.144.4.068.047.138.095.214.144v-1.163zM23.183 15.498c-.86 0-1.322.317-1.694.572-.326.224-.585.4-1.143.4-.56 0-.817-.176-1.144-.4-.372-.255-.834-.571-1.694-.571s-1.322.316-1.693.57c-.327.225-.585.402-1.144.402-.558 0-.817-.177-1.144-.401-.37-.255-.833-.571-1.693-.571-.86 0-1.322.316-1.693.57-.327.225-.585.402-1.144.402-.558 0-.817-.177-1.144-.401-.37-.255-.833-.571-1.693-.571-.86 0-1.322.316-1.693.57-.327.225-.585.402-1.144.402-.559 0-.817-.177-1.144-.401-.371-.255-.833-.571-1.693-.571-.268 0-.486.217-.486.486 0 .268.218.486.486.486.559 0 .817.177 1.144.4.371.255.833.572 1.693.572.86 0 1.322-.317 1.693-.571.327-.224.585-.401 1.144-.401.559 0 .817.177 1.144.4.371.255.833.572 1.693.572.86 0 1.322-.317 1.693-.571.327-.224.585-.401 1.144-.401.559 0 .817.177 1.144.4.371.255.833.572 1.693.572.86 0 1.322-.317 1.694-.571.326-.224.585-.401 1.143-.401.56 0 .817.177 1.144.4.372.255.834.572 1.694.572s1.322-.317 1.693-.571c.327-.224.585-.401 1.144-.401.268 0 .486-.218.486-.486 0-.269-.218-.487-.486-.487z"/>
                    <path fill="#2C2C2C" d="M24.594 12.944c-.322-.188-.736-.353-1.357-.353-.86 0-1.322.316-1.694.57-.327.225-.585.402-1.143.402-.56 0-.817-.177-1.144-.401-.371-.255-.834-.571-1.693-.571-.86 0-1.322.316-1.694.57-.327.225-.585.402-1.144.402-.308 0-.525-.054-.712-.14-.213.263-.477.492-.787.67.341.221.782.442 1.5.442.86 0 1.321-.317 1.693-.571.327-.224.585-.401 1.143-.401.56 0 .817.177 1.144.4.372.255.834.572 1.694.572s1.321-.317 1.693-.571c.327-.224.585-.401 1.143-.401.56 0 .817.177 1.144.4.068.047.138.095.214.144v-1.163zM13.656 10.64c-.38-.696-1.1-1.09-1.84-1.09-1.569 0-2.607 1.693-1.837 3.101.38.697 1.099 1.09 1.84 1.09 1.568 0 2.607-1.692 1.837-3.1z"/>
                    <path fill="#2C2C2C" d="M6.596 11.856l-5.468 2.967c.7.122 1.146.427 1.464.645.298.205.398.274.731.274.333 0 .433-.07.732-.274.406-.278 1.02-.699 2.105-.699 1.086 0 1.7.42 2.106.7.298.204.398.273.731.273.333 0 .433-.07.732-.274.182-.125.406-.278.697-.41l-1.674-3.031 1.271-3.475 3.221-2.764c.437-.375.487-1.033.113-1.47-.375-.436-1.033-.487-1.47-.112L8.46 7.147c-.136.117-.24.266-.3.433l-1.556 4.252-.008.024z"/>
                    <path fill="#2C2C2C" d="M8.997 16.47c-.558 0-.817-.176-1.143-.4-.372-.255-.834-.571-1.694-.571s-1.322.316-1.693.57c-.327.225-.585.402-1.144.402-.559 0-.817-.177-1.144-.401-.37-.255-.833-.571-1.693-.571-.268 0-.486.217-.486.486 0 .268.218.486.486.486.559 0 .817.177 1.144.4.371.255.833.572 1.693.572.86 0 1.322-.317 1.693-.571.327-.224.585-.401 1.144-.401.559 0 .817.177 1.144.4.371.255.833.572 1.693.572.86 0 1.322-.317 1.693-.571.327-.224.585-.401 1.144-.401.559 0 .817.177 1.144.4.371.255.833.572 1.693.572.86 0 1.322-.317 1.694-.571.326-.224.585-.401 1.143-.401.56 0 .817.177 1.144.4.372.255.834.572 1.694.572s1.322-.317 1.693-.571c.327-.224.585-.401 1.144-.401.268 0 .486-.218.486-.486 0-.269-.218-.486-.486-.486-.86 0-1.322.316-1.694.57-.326.225-.585.402-1.143.402-.56 0-.817-.177-1.144-.401-.372-.255-.834-.571-1.694-.571s-1.322.316-1.693.57c-.327.225-.585.402-1.144.402-.558 0-.817-.177-1.143-.401-.372-.255-.834-.571-1.694-.571s-1.322.316-1.693.57c-.327.225-.585.402-1.144.402zM21.49 18.5c-.327.224-.586.401-1.144.401-.56 0-.817-.177-1.144-.4-.372-.255-.834-.572-1.694-.572s-1.322.317-1.693.571c-.327.224-.585.401-1.144.401-.558 0-.817-.177-1.144-.4-.37-.255-.833-.572-1.693-.572-.86 0-1.322.317-1.693.571-.327.224-.585.401-1.144.401-.558 0-.817-.177-1.144-.4-.37-.255-.833-.572-1.693-.572-.86 0-1.322.317-1.693.571-.327.224-.585.401-1.144.401-.559 0-.817-.177-1.144-.4-.371-.255-.833-.572-1.693-.572-.268 0-.486.218-.486.486 0 .269.218.486.486.486.559 0 .817.177 1.144.401.371.255.833.572 1.693.572.86 0 1.322-.317 1.693-.572.327-.224.585-.4 1.144-.4.559 0 .817.176 1.144.4.371.255.833.572 1.693.572.86 0 1.322-.317 1.693-.572.327-.224.585-.4 1.144-.4.559 0 .817.176 1.144.4.371.255.833.572 1.693.572.86 0 1.322-.317 1.694-.572.326-.224.585-.4 1.143-.4.56 0 .817.176 1.144.4.372.255.834.572 1.694.572s1.322-.317 1.693-.572c.327-.224.585-.4 1.144-.4.268 0 .486-.218.486-.487 0-.268-.218-.486-.486-.486-.86 0-1.322.317-1.694.571z"/>
                </g>
            </g>
        </g>
    </g>
</svg>
