<svg xmlns="http://www.w3.org/2000/svg" width="12" height="12" viewBox="0 0 12 12">
    <g fill="none" fill-rule="evenodd">
        <g fill="#38393B" fill-rule="nonzero" stroke="#38393B" stroke-width=".9">
            <g>
                <path d="M5.552 5L9.886.667c.152-.153.152-.4 0-.553-.153-.152-.4-.152-.553 0L5 4.448.667.114c-.153-.152-.4-.152-.553 0-.152.153-.152.4 0 .553L4.448 5 .114 9.333c-.152.153-.152.4 0 .553.077.076.177.114.277.114.1 0 .2-.038.276-.114L5 5.552l4.333 4.334c.076.076.176.114.276.114.1 0 .2-.038.277-.114.152-.153.152-.4 0-.553L5.552 5z" transform="translate(-987 -259) translate(988 260)"/>
            </g>
        </g>
    </g>
</svg>
