<svg xmlns="http://www.w3.org/2000/svg" width="12" height="12" viewBox="0 0 12 12">
    <g fill="none" fill-rule="evenodd">
        <g>
            <g transform="translate(-137 -195) translate(137 195)">
                <circle cx="6" cy="6" r="6" fill="#FF4848"/>
                <g fill="#FFF" fill-rule="nonzero" stroke="#FFF" stroke-width=".9">
                    <path d="M2.221 2L3.954.267c.061-.061.061-.16 0-.221-.06-.061-.16-.061-.22 0L2 1.779.267.046c-.061-.061-.16-.061-.221 0-.061.06-.061.16 0 .22L1.779 2 .046 3.733c-.061.061-.061.16 0 .221.03.03.07.046.11.046.04 0 .08-.015.11-.046L2 2.221l1.733 1.733c.03.03.07.046.11.046.04 0 .08-.015.111-.046.061-.06.061-.16 0-.22L2.221 2z" transform="translate(4 4)"/>
                </g>
            </g>
        </g>
    </g>
</svg>
