<svg xmlns="http://www.w3.org/2000/svg" width="20" height="20" viewBox="0 0 20 20">
    <g fill="none" fill-rule="evenodd">
        <g fill="#B8B8B8" fill-rule="nonzero" stroke="#B8B8B8" stroke-width=".6">
            <g>
                <path d="M7.927 0C3.557 0 0 3.556 0 7.927c0 4.37 3.556 7.927 7.927 7.927 4.37 0 7.927-3.556 7.927-7.927C15.854 3.557 12.298 0 7.927 0zm0 14.39c-3.564 0-6.464-2.9-6.464-6.463 0-3.564 2.9-6.464 6.464-6.464 3.564 0 6.463 2.9 6.463 6.464 0 3.564-2.9 6.463-6.463 6.463z" transform="translate(-471 -616) translate(472 617)"/>
                <path d="M17.786 16.751l-4.196-4.195c-.285-.286-.748-.286-1.034 0-.286.285-.286.749 0 1.034l4.195 4.196c.143.143.33.214.517.214s.375-.071.518-.214c.285-.286.285-.75 0-1.035z" transform="translate(-471 -616) translate(472 617)"/>
            </g>
        </g>
    </g>
</svg>
