<svg xmlns="http://www.w3.org/2000/svg" width="22" height="19" viewBox="0 0 22 19">
    <g fill="none" fill-rule="evenodd">
        <g stroke="#FFF">
            <g transform="translate(-682 -399) translate(683 400)">
                <rect width="5" height="11" y="6.492" rx=".5"/>
                <path d="M6.733 6.492l2.22-5.243C9.272.498 10.023.023 10.838.058c.758.032 1.356.656 1.356 1.414v3.885c0 .552.448 1 1 1h4.368c1.105 0 2 .895 2 2 0 .073-.004.147-.012.22l-.89 8.025c-.057.506-.485.89-.994.89H7.733c-.553 0-1-.448-1-1v-10h0z"/>
            </g>
        </g>
    </g>
</svg>
