<svg xmlns="http://www.w3.org/2000/svg" width="312" height="278" viewBox="0 0 312 278">
    <g fill="none" fill-rule="evenodd">
        <g>
            <g>
                <g>
                    <path fill="#F5F5F5" d="M63.614 127.259c-13.759 1.47-36.151 3.848-47.923 12.562-28.45 21.06-14.979 49.631 14.607 60.266 56.698 20.38 127.593 7.525 186.804 3.437 11.616-.802 31.316-1.88 39.93-10.92 17.125-17.978 3.401-43.173-12.393-54.704-7.358-5.372-26.862-5.552-32.18-5.485-74.417.946-82.204 11.328-133.039-4.523l-15.806-.633z" transform="translate(-1010 -1284) translate(1010 1282) translate(19 68)"/>
                    <path fill="#77D1D7" d="M219.962 114.15l5.582 40.299c.13.945.91 1.665 1.862 1.722 5.87.349 11.824.313 17.861-.108 5.612-.39 15.942-.39 30.99 0l9.962-42.914c-15.575-1.187-24.392-1.247-26.452-.179-2.06 1.068-15.328 1.461-39.805 1.18z" transform="translate(-1010 -1284) translate(1010 1282) translate(19 68)"/>
                    <path fill="#11703E" d="M222.607 98.746c-12.572-9.859-10.928-33.627-6.679-31.049 2.834 1.719 10.993 11.942 24.48 30.67l-18.329-49.079c-11.62-34.537-13.67-50.923-6.15-49.16 11.28 2.647 17.454 23.78 17.454 34.696 0 10.916 7.252 18.678 10.24 43.781 2.99 25.103 5.293 19.688 5.129 19.762-1.238-1.152-1.636-23.09-3.342-28.562-1.705-5.473 0-9.875-1.786-15.056-1.787-5.181-2.303-15.948-1.474-16.778.828-.83 2.302-10.318 1.474-19.77-.829-9.453.828-13.302 1.786-16.276.958-2.973 5.617-1.89 6.408 0 .79 1.89 4.154 8.103 7.512 16.275 3.357 8.172-.525 13.625-3.358 45.16-2.833 31.536 0 27.834 0 27.834s12.192-34.543 12.192-41.906c0-7.363 10.902-29.977 14.566-32.837 3.663-2.86 3.949-3.788 7.866 2.86 3.917 6.647.971 19.63-1.745 25.363-2.717 5.732-16.508 21.489-16.508 32.484 0 7.331-3.93 18.378-11.79 33.14 4.595-6.633 9.988-13.32 14.536-19.988 2.972-4.36 5.518-9.022 8.8-13.152 11.339-14.878 10.331 1.326 2.79 10.958-6.907 8.822-15.13 16.447-23.098 24.327-10.2 1.195-16.853 1.544-19.957 1.048-3.357-.537-5.276-3.482-21.017-14.745z" transform="translate(-1010 -1284) translate(1010 1282) translate(19 68)"/>
                    <path stroke="#353535" stroke-linecap="round" d="M262.969 111.09c9.514-10.364 22.713-20.71 26.07-35.275M285.95 24.552c-.58 1.972-1.881 3.95-2.443 5.836-2.782 9.33-4.732 17.733-8.51 27.176-2.4 5.997-4.758 10.185-6.487 14.503-15.237 38.068-6.262 17.508-12.615 37.996M249.4 4.868c2.594 12.406 1.708 24.695 2.594 35.637.508 6.269-1.545 13.953-1.175 19.643.513 7.895.464 15.253 1.175 21.63 1.468 13.173 3.028 23.431 3.9 30.433M220.15 11.542c14.569 32.66 18.199 68.22 29.705 101.966M225.808 90.07c14.68 11.104 6.752 4.22 22.81 21.725" transform="translate(-1010 -1284) translate(1010 1282) translate(19 68)"/>
                    <path stroke="#FFF" stroke-linecap="round" stroke-width=".6" d="M231.166 114.744c1.467 14.052 2.935 27.105 4.402 41.157M245.838 114.475c.454 13.67.858 27.561 1.312 41.23M261.304 113.44c-.029 14.334-2.057 27.668-2.086 42.002M274.757 112.583c-1.145 9.886-3.238 24.13-6.28 42.732" transform="translate(-1010 -1284) translate(1010 1282) translate(19 68)"/>
                </g>
                <g>
                    <path fill="#333" d="M33.059 59.955L33.059 55.598 36.569 54.701 36.569 59.955z" transform="translate(-1010 -1284) translate(1010 1282)"/>
                    <path fill="#EBE2BE" d="M0 52.837l1-41.961C25.271.234 49.44.234 73.51 10.876c-.1.151-.735 14.398-1.904 42.74-14.96 2.295-28.475 3.323-40.547 3.085C18.987 56.464 8.634 55.175 0 52.837z" transform="translate(-1010 -1284) translate(1010 1282)"/>
                    <path fill="#E7E7E7" d="M38.205 86.436c5.78 42.794 14.4 109.074 19.41 152.071h4.005C52.55 139.69 47.068 87.727 45.173 82.62c-1.143-3.08-3.465-1.808-6.968 3.816z" transform="translate(-1010 -1284) translate(1010 1282)"/>
                    <path fill="#E7E7E7" d="M7.205 86.436c5.78 42.794 14.4 109.074 19.41 152.071h4.005c-8.457-98.94-13.633-150.964-15.528-156.071-1.143-3.08-3.772-1.747-7.887 4z" transform="translate(-1010 -1284) translate(1010 1282) matrix(-1 0 0 1 37.825 0)"/>
                    <path fill="#FEBE55" d="M10.89 196.994c-.054.018-1.704 11.471-3.685 42.49h5.023c.341-8.388.752-14.052 1.232-16.993.48-2.941 1.355-10.784 2.624-23.53l-5.194-1.967z" transform="translate(-1010 -1284) translate(1010 1282)"/>
                    <path fill="#E7E7E7" d="M30.62 91.521L40.205 239.507 43.482 239.507 38.089 86.081 46.805 91.521 45.003 65.084 48.36 59.955 21.186 59.955 24.235 65.084 21.186 91.521z" transform="translate(-1010 -1284) translate(1010 1282)"/>
                    <path stroke="#FFF" stroke-linecap="round" d="M1.5 52.28c31.922-9.501 44.597-7.283 69.206.337" transform="translate(-1010 -1284) translate(1010 1282)"/>
                </g>
                <path stroke="#000" stroke-linecap="round" stroke-width="1.5" d="M18.375 173.691c9.424-.912 10.119-1.512 18.272-2.736" transform="translate(-1010 -1284) translate(1010 1282)"/>
                <path fill="#2C2C2C" d="M89.456 204.977l1.208 5.307h5.471c-2.353 8.183-3.953 13.792-4.8 16.825-2.826 10.118-3.653 15.072-1.341 15.072.893 1.06 9.52-9.573 25.879-31.897h65.912c7.706 10.155 13.684 17.76 17.932 22.817 6.373 7.586 9.487 11.957 10.032 9.08.438-5.623-2.314-16.256-8.255-31.897h6.959v-12.532L88.174 200.59l1.282 4.387z" transform="translate(-1010 -1284) translate(1010 1282)"/>
                <path fill="#FEBE55" d="M227.275 112.1c8.44 3.175 23.816 2.482 27.721 10.609 3.906 8.126-.751 19.874-4.447 31.245-6.892 18.247-13.64 48.413-26.447 51.012-31.632 1.48-151.015.54-158.58-1.556-12.962-7.695-18.104-28.682-20.925-42.604-6.51-40.98-11.287-37.027 23.532-49.745 1.259-17.533 6.613-27.76 16.06-30.68C98.363 76 207.096 74.92 215.6 78.84c5.669 2.615 9.56 13.701 11.676 33.259z" transform="translate(-1010 -1284) translate(1010 1282)"/>
                <path stroke="#2C2C2C" stroke-linecap="round" d="M43.477 122.555c24.294-9.698 27.598 54.705 33.81 55.917 15.35 2.994 55.47 3.307 87.328 2.856 20.087-.284 36.818-.284 42.536-2.856 20.123-17.356 15.166-61.1 44.578-59.214" transform="translate(-1010 -1284) translate(1010 1282)"/>
                <path stroke="#2C2C2C" stroke-linecap="round" d="M78.837 178.077c.303-8.038-1.109-16.327.908-24.114.708-2.732 3.872-4.974 6.686-5.196 33.637-2.653 67.438-2.55 101.172-3.31 9.42-.212 13.754-1.443 18.748 6.81 1.094 1.809 1.242 4.096 1.29 6.21.15 6.798-.504 12.804-.736 19.6M67.94 111.526c8.303 23.244 7.464 22.162 16.12 37.717M203.108 148.44c13.87-22.828 5.79-10.75 24.863-35.81M78.871 158.638c2.713 4.935 108.214 2.424 128.713-1.205" transform="translate(-1010 -1284) translate(1010 1282)"/>
            </g>
        </g>
    </g>
</svg>
