<svg xmlns="http://www.w3.org/2000/svg" width="29" height="17" viewBox="0 0 29 17">
    <g fill="none" fill-rule="evenodd">
        <g fill="#2C2C2C" fill-rule="nonzero">
            <g>
                <g>
                    <path d="M23.846 7.646v2.55H5.154v-2.55c0-1.405-1.143-2.548-2.549-2.548H0v5.947c0 2.051 1.462 3.767 3.398 4.162v1.785h1.7v-1.699h18.804v1.7h1.7v-1.786c1.936-.395 3.398-2.11 3.398-4.162V5.098h-2.605c-1.406 0-2.55 1.143-2.55 2.548z" transform="translate(-381 -1097) translate(136 991) translate(245 106)"/>
                    <path d="M22.146 8.496v-.85c0-2.342 1.906-4.248 4.249-4.248h.763C26.763 1.462 25.048 0 22.996 0H6.004C3.953 0 2.237 1.462 1.842 3.398h.763c2.343 0 4.249 1.906 4.249 4.248v.85h15.292zm-.85-7.047l1.202 1.202-1.201 1.201-1.202-1.201 1.202-1.202zm-3.398 3.399L19.1 6.049l-1.202 1.202-1.201-1.202 1.201-1.201zM14.5 1.449l1.201 1.202L14.5 3.852l-1.201-1.201L14.5 1.449zm-3.398 3.399l1.201 1.201-1.201 1.202L9.9 6.049l1.202-1.201zm-4.6-2.197l1.201-1.202 1.202 1.202-1.202 1.201-1.201-1.201z" transform="translate(-381 -1097) translate(136 991) translate(245 106)"/>
                </g>
            </g>
        </g>
    </g>
</svg>
