<svg xmlns="http://www.w3.org/2000/svg" width="25" height="25" viewBox="0 0 25 25">
    <g fill="none" fill-rule="evenodd">
        <g fill-rule="nonzero">
            <g>
                <g>
                    <path fill="#000" d="M5.707 4.891H4.89v1.63h.816c.45 0 .815-.365.815-.815 0-.449-.366-.815-.815-.815z" transform="translate(-383 -1283) translate(137 1241) translate(246 42)"/>
                    <path fill="#2C2C2C" d="M23.37 21.589c.946-.338 1.63-1.234 1.63-2.296v-1.63c0-1.134-.78-2.082-1.829-2.357l-1.102-3.308c-.334-1-1.266-1.672-2.32-1.672h-6.346c-1.054 0-1.986.672-2.32 1.672l-1.102 3.308c-1.05.275-1.829 1.223-1.829 2.357v1.63c0 1.062.684 1.958 1.63 2.296v.965c0 .287.06.56.15.815h-3.41V12.98c2.76-.398 4.891-2.773 4.891-5.642v-1.63C11.413 2.56 8.853 0 5.707 0 2.56 0 0 2.56 0 5.707v1.63c0 2.87 2.13 5.244 4.891 5.641V23.37H.815c-.45 0-.815.364-.815.815 0 .45.365.815.815.815h23.37c.45 0 .815-.365.815-.815 0-.45-.365-.815-.815-.815h-.966c.092-.257.15-.528.15-.816v-.965zM4.89 8.152v.815c0 .45-.365.816-.815.816-.45 0-.815-.365-.815-.816v-4.89c0-.451.365-.816.815-.816h1.63c1.35 0 2.446 1.097 2.446 2.445 0 1.35-1.097 2.446-2.446 2.446h-.815zm7.74 4.362c.11-.333.421-.557.772-.557h6.346c.351 0 .662.224.773.557l.901 2.703H11.73l.901-2.703zm-2.033 7.595c-.45 0-.815-.366-.815-.816v-1.63c0-.45.365-.815.815-.815h1.043l1.087 3.26h-2.13zm3.926 3.26c.091-.256.15-.527.15-.815v-.815h3.804v.815c0 .288.06.56.15.816h-4.104zm8.03-3.26h-2.13l1.087-3.261h1.043c.45 0 .816.366.816.815v1.63c0 .45-.366.816-.816.816z" transform="translate(-383 -1283) translate(137 1241) translate(246 42)"/>
                </g>
            </g>
        </g>
    </g>
</svg>
