<svg xmlns="http://www.w3.org/2000/svg" width="23" height="16" viewBox="0 0 23 16">
    <g fill="none" fill-rule="evenodd">
        <g fill="#2C2C2C" fill-rule="nonzero">
            <g>
                <g>
                    <path d="M5.413 9.018c0-.292-.238-.53-.53-.53h-.829v1.061h.829c.292 0 .53-.238.53-.53z" transform="translate(-139 -1151) translate(136 991) translate(3 160)"/>
                    <path d="M23 2.9V.024H0V2.9h2.707v1.57H0v11.506h23V4.47h-2.707V2.9H23zm-18.946 0h14.892v1.57H4.054V2.9zm1.64 10.408l-1.225-2.41h-.415v2.409H2.707V7.14h2.176c1.035 0 1.878.842 1.878 1.878 0 .685-.368 1.284-.915 1.613l1.05 2.066-1.202.61zm5.357-4.82H9.018v1.061h2.033v1.348H9.018v1.062h2.033v1.348H7.67V7.14h3.38v1.348zm5.272 4.819h-1.26l-1.626-3.1v3.1H12.09V7.14h1.26l1.626 3.1v-3.1h1.347v6.167zm4.612-6.167v1.348H19.84v4.819H18.49v-4.82h-1.097V7.14h3.541z" transform="translate(-139 -1151) translate(136 991) translate(3 160)"/>
                </g>
            </g>
        </g>
    </g>
</svg>
