<svg xmlns="http://www.w3.org/2000/svg" width="21" height="26" viewBox="0 0 21 26">
    <g fill="none" fill-rule="evenodd">
        <g fill="#2C2C2C" fill-rule="nonzero">
            <g>
                <g>
                    <path d="M16.933 23.444H15.89l-1.106-3.124c-.221.101-.444.198-.672.283-.662 1.374-2.053 2.296-3.612 2.296-1.559 0-2.95-.922-3.612-2.296-.228-.085-.45-.182-.672-.283L5.11 23.444H4.067c-.444 0-.804.367-.804.818 0 .452.36.818.804.818h12.866c.444 0 .804-.366.804-.818 0-.451-.36-.818-.804-.818z" transform="translate(-385 -1342) translate(137 1241) translate(248 101)"/>
                    <path d="M19.018 8.227c-.192-.706-.467-1.38-.823-2.019.613-.933.54-2.238-.303-3.094-.839-.853-2.12-.935-3.042-.308-.628-.362-1.292-.642-1.986-.837C12.642.847 11.667 0 10.5 0 9.333 0 8.358.847 8.136 1.969c-.694.195-1.358.475-1.986.837-.917-.624-2.2-.549-3.042.308-.839.853-.92 2.156-.303 3.094-.356.638-.631 1.313-.823 2.02C.879 8.452.046 9.444.046 10.631c0 1.187.833 2.179 1.936 2.404.192.706.467 1.381.823 2.02-.612.93-.54 2.235.303 3.093.837.852 2.118.937 3.043.309.627.362 1.29.641 1.985.837.222 1.121 1.197 1.968 2.364 1.968 1.167 0 2.142-.847 2.364-1.968.694-.196 1.358-.475 1.986-.837.915.622 2.198.55 3.042-.308.839-.854.92-2.157.303-3.095.356-.638.631-1.313.823-2.019 1.103-.226 1.936-1.217 1.936-2.404 0-1.187-.833-2.18-1.936-2.405zM4.104 7.183c.565.177 1.13.172 1.744-.126L8.329 9.58c-.035.075-.065.153-.093.233H4.723c-.204-.581-.614-1.056-1.144-1.342.134-.446.31-.877.525-1.29zm1.744 7.024c-.616-.3-1.182-.302-1.744-.126-.216-.413-.391-.844-.525-1.29.53-.285.94-.76 1.144-1.341h3.513c.028.08.058.157.093.233l-2.481 2.524zm3.848 2.3c-.572.207-1.039.625-1.32 1.164-.438-.137-.862-.315-1.267-.535.174-.574.169-1.15-.124-1.773l2.481-2.524c.075.037.151.067.23.096v3.572zm0-8.178c-.079.028-.155.059-.23.095L6.985 5.9c.292-.622.298-1.196.124-1.773.405-.22.829-.398 1.267-.534.281.539.748.956 1.32 1.163V8.33zm5.456-1.272c.612.297 1.177.303 1.744.126.216.412.391.843.525 1.289-.53.286-.94.76-1.144 1.342h-3.513c-.028-.08-.058-.158-.093-.234l2.481-2.523zm-3.848-2.3c.572-.208 1.039-.625 1.32-1.164.438.136.862.315 1.267.534-.173.573-.17 1.148.124 1.773l-2.481 2.524c-.075-.036-.151-.067-.23-.095V4.756zm2.587 12.379c-.405.22-.829.398-1.267.534-.281-.538-.749-.956-1.32-1.163v-3.573c.079-.028.155-.058.23-.095l2.481 2.524c-.292.623-.298 1.198-.124 1.773zm3.005-3.055c-.565-.177-1.13-.172-1.744.126l-2.481-2.524c.035-.076.065-.154.093-.234h3.513c.204.582.614 1.057 1.144 1.342-.134.446-.31.877-.525 1.29z" transform="translate(-385 -1342) translate(137 1241) translate(248 101)"/>
                </g>
            </g>
        </g>
    </g>
</svg>
