<svg xmlns="http://www.w3.org/2000/svg" width="21" height="19" viewBox="0 0 21 19">
    <g fill="none" fill-rule="evenodd">
        <g fill="#2C2C2C" fill-rule="nonzero">
            <g>
                <g>
                    <path d="M9.783 2.379L7.874.38C7.647.143 7.341.008 7.013 0c-.33-.008-.64.113-.878.34L.38 5.837c-.238.227-.373.533-.38.861-.008.329.113.64.34.878l3.72 3.895V4.84c0-1.357 1.104-2.461 2.46-2.461h3.262zM20.072 2.52L12.359.566c-.319-.081-.65-.033-.932.135-.282.169-.482.437-.563.755l-.234.924h3.849c1.356 0 2.46 1.104 2.46 2.46v12.244c.13-.027.257-.076.375-.147.282-.168.482-.436.563-.754l3.085-12.166c.167-.658-.232-1.328-.89-1.495z" transform="translate(-649 -1547) translate(137 1501) translate(512 46)"/>
                    <path d="M14.479 3.61H6.52c-.678 0-1.23.551-1.23 1.23v12.55c0 .68.552 1.231 1.23 1.231h7.958c.678 0 1.23-.552 1.23-1.23V4.84c0-.679-.552-1.23-1.23-1.23zM8.203 5.905c.34 0 .615.276.615.616 0 .34-.275.615-.615.615-.34 0-.615-.276-.615-.615 0-.34.275-.616.615-.616zm2.297 8.121c-.147 0-.293-.052-.41-.156L8.255 12.23l-.012-.012c-.46-.434-.682-1.092-.592-1.758.085-.634.446-1.178.965-1.455.253-.135.52-.203.793-.203.416 0 .796.159 1.091.424.295-.265.675-.424 1.09-.424.275 0 .541.068.793.203.52.277.881.821.966 1.455.09.666-.132 1.324-.592 1.758l-.012.012-1.835 1.64c-.117.105-.263.157-.41.157zm2.297 2.297c-.34 0-.615-.275-.615-.615 0-.34.275-.615.615-.615.34 0 .615.275.615.615 0 .34-.275.615-.615.615z" transform="translate(-649 -1547) translate(137 1501) translate(512 46)"/>
                </g>
            </g>
        </g>
    </g>
</svg>
