<svg xmlns="http://www.w3.org/2000/svg" width="22" height="24" viewBox="0 0 22 24">
    <g fill="none" fill-rule="evenodd">
        <g fill="#2C2C2C" fill-rule="nonzero">
            <g>
                <g>
                    <path d="M11.18 8.238c.504-.508 1.136-.87 1.83-1.048V2.004C13.01.897 12.112 0 11.007 0H2C.896 0 0 .897 0 2.004v9.018c0 1.106.896 2.003 2.001 2.003h4.397l4.782-4.787zM9.006 3.006c.553 0 1.001.448 1.001 1.002 0 .553-.448 1.002-1 1.002-.553 0-1.001-.449-1.001-1.002 0-.554.448-1.002 1-1.002zm0 4.008c.553 0 1.001.448 1.001 1.002 0 .553-.448 1.002-1 1.002-.553 0-1.001-.449-1.001-1.002 0-.554.448-1.002 1-1.002zM4.003 3.006c.553 0 1 .448 1 1.002 0 .553-.447 1.002-1 1.002-.553 0-1-.449-1-1.002 0-.554.447-1.002 1-1.002zm0 7.014c-.553 0-1-.449-1-1.002 0-.554.447-1.002 1-1.002.553 0 1 .448 1 1.002 0 .553-.447 1.002-1 1.002zM21.086 13.906l-5.12-5.127c-.17-.17-.368-.308-.587-.408-1.267-.575-2.607-.31-3.492.576l-5.12 5.126c-.17.17-.308.369-.408.587-.575 1.27-.31 2.61.575 3.497l5.121 5.127c.17.17.368.308.586.408 1.267.575 2.607.31 3.492-.576l5.121-5.127c.17-.17.308-.369.407-.587.574-1.268.31-2.61-.575-3.496zm-7.076 3.127c-.405 0-.77-.244-.925-.618-.154-.375-.069-.806.217-1.092.287-.287.717-.372 1.09-.217.375.155.619.52.619.925 0 .554-.448 1.002-1.001 1.002z" transform="translate(-649 -1345) translate(137 1241) translate(512 104)"/>
                </g>
            </g>
        </g>
    </g>
</svg>
