<svg xmlns="http://www.w3.org/2000/svg" width="22" height="15" viewBox="0 0 22 15">
    <g fill="none" fill-rule="evenodd">
        <g fill="#2C2C2C" fill-rule="nonzero">
            <g>
                <g>
                    <path d="M19.894 2.58c-2.886-4.74-7.233-1.442-7.233-1.442-.282.213-.801.388-1.155.389h-1.164c-.353.001-.873-.174-1.155-.387 0 0-4.347-3.3-7.233 1.442-2.885 4.74-1.723 9.9-1.723 9.9.204 1.264.876 2.108 2.143 2.002 1.263-.106 4.005-3.404 4.005-3.404.227-.271.701-.494 1.054-.494h6.98c.353 0 .827.221 1.053.493 0 0 2.743 3.298 4.008 3.404 1.266.105 1.939-.739 2.141-2.002 0 0 1.165-5.16-1.72-9.9zM8.301 6.44H6.804v1.442s-.317.242-.808.236c-.49-.007-.711-.264-.711-.264V6.44H3.87s-.176-.181-.223-.657c-.047-.477.195-.862.195-.862H5.34V3.425s.308-.165.75-.153c.444.014.769.18.769.18l-.006 1.47h1.413s.247.316.268.699c.02.383-.233.818-.233.818zm6.865 1.644c-.655 0-1.184-.53-1.184-1.185 0-.656.529-1.185 1.184-1.185.653 0 1.185.53 1.185 1.185s-.532 1.185-1.185 1.185zm0-3.26c-.655 0-1.184-.53-1.184-1.184 0-.656.529-1.185 1.184-1.185.653 0 1.185.529 1.185 1.185 0 .655-.532 1.184-1.185 1.184zm2.95 1.75c-.655 0-1.183-.53-1.183-1.185s.528-1.185 1.184-1.185c.652 0 1.185.53 1.185 1.185s-.533 1.185-1.185 1.185z" transform="translate(-385 -1610) translate(137 1501) translate(248 109)"/>
                </g>
            </g>
        </g>
    </g>
</svg>
