<svg xmlns="http://www.w3.org/2000/svg" width="25" height="21" viewBox="0 0 25 21">
    <g fill="none" fill-rule="evenodd">
        <g fill="#2C2C2C" fill-rule="nonzero">
            <g>
                <g>
                    <path d="M10.337 12.937c.835.317 1.555.59 2.163.59.608 0 1.328-.273 2.163-.59 1.081-.41 2.307-.875 3.72-.875.553 0 1.096.046 1.63.124-.166-4-3.472-7.204-7.513-7.204-4.04 0-7.344 3.202-7.512 7.2.53-.076 1.072-.12 1.628-.12 1.414 0 2.64.465 3.721.875zM24.522 15.038l-.233-.087c-1.798-.667-3.837-1.424-5.905-1.424-1.145 0-2.19.397-3.202.78-.929.352-1.806.685-2.682.685-.876 0-1.753-.333-2.682-.685-1.011-.383-2.057-.78-3.202-.78-2.13 0-4.135.756-6.073 1.486l-.069.026c-.378.143-.57.565-.427.944.143.378.566.57.944.427l.069-.026c1.899-.716 3.692-1.392 5.556-1.392.877 0 1.754.333 2.683.685 1.01.383 2.056.78 3.201.78s2.19-.397 3.202-.78c.928-.352 1.805-.685 2.682-.685 1.805 0 3.63.677 5.396 1.333l.233.086c.084.031.17.046.254.046.298 0 .578-.183.687-.478.14-.38-.053-.801-.432-.941zM.732 13.234h1.514c.405 0 .733-.328.733-.732 0-.405-.328-.733-.733-.733H.732c-.404 0-.732.328-.732.733 0 .404.328.732.732.732zM1.943 7.252l1.31.757c.116.067.242.098.366.098.253 0 .5-.131.635-.366.202-.35.082-.798-.268-1l-1.31-.757c-.351-.203-.799-.083-1.001.268-.203.35-.083.798.268 1zM6.739 3.988c.135.235.382.366.635.366.124 0 .25-.032.365-.098.35-.202.47-.65.268-1L7.25 1.943c-.202-.35-.65-.47-1-.268-.35.203-.47.65-.268 1l.757 1.312zM12.5 2.98c.404 0 .732-.328.732-.732V.734c0-.404-.328-.732-.732-.732-.404 0-.732.328-.732.732v1.514c0 .404.328.732.732.732zM17.26 4.256c.116.066.242.098.366.098.253 0 .5-.131.635-.366l.757-1.311c.202-.35.082-.798-.268-1-.35-.203-.798-.083-1 .267l-.757 1.311c-.203.35-.083.799.268 1zM21.38 8.107c.125 0 .251-.031.366-.098l1.311-.757c.35-.202.47-.65.268-1-.202-.35-.65-.47-1-.268l-1.311.756c-.35.203-.47.65-.268 1.001.135.235.382.366.635.366zM22.021 12.502c0 .404.328.732.733.732h1.514c.404 0 .732-.328.732-.732 0-.405-.328-.733-.732-.733h-1.514c-.405 0-.733.328-.733.733zM20.476 18.796l-.018-.007c-1.064-.405-2.672-1.017-4.1-1.017-.786 0-1.5.272-2.19.536-.593.226-1.152.44-1.668.44s-1.075-.214-1.667-.44c-.69-.264-1.405-.536-2.19-.536-1.227 0-2.018.28-3.328.745-.234.084-.489.174-.77.272-.382.132-.584.55-.452.931.105.303.389.493.692.493.08 0 .16-.013.24-.04.285-.1.543-.19.78-.275 1.28-.454 1.863-.662 2.838-.662.515 0 1.075.214 1.667.44.69.264 1.404.537 2.19.537s1.5-.273 2.19-.537c.592-.226 1.152-.44 1.667-.44 1.16 0 2.616.555 3.58.922l.017.007c.378.144.801-.046.945-.424.144-.378-.045-.8-.423-.945z" transform="translate(-138 -1281) translate(137 1241) translate(1 40)"/>
                </g>
            </g>
        </g>
    </g>
</svg>
