<svg xmlns="http://www.w3.org/2000/svg" width="25" height="21" viewBox="0 0 25 21">
    <g fill="none" fill-rule="evenodd">
        <g fill="#2C2C2C" fill-rule="nonzero">
            <g>
                <g>
                    <path d="M15.26 12.517h.029c.358 0 .655-.288.67-.658.067-1.673.149-4.587.035-7.086.028-.075.017-.453-.028-.545-.11-1.865-.342-3.413-.792-3.894-.184-.196-.421-.304-.669-.304-1.473 0-1.958 1.778-2.013 2.828-.019.379.265.703.636.723.378.02.686-.272.705-.65.02-.369.175-1.158.463-1.431.138.423.237 1.264.303 2.345h-4.398c-.118-1.69-.349-3.064-.768-3.511C9.249.138 9.012.03 8.764.03 7.29.03 6.806 1.808 6.752 2.858c-.02.379.265.703.635.723.375.02.686-.272.705-.65.02-.369.175-1.158.463-1.431.273.841.4 3.308.403 6.102-.025.072-.025.385 0 .457-.005 1.234-.032 2.518-.082 3.743-.015.38.273.7.644.715h.027c.358 0 .656-.288.67-.658.035-.86.074-2.049.087-3.34h4.392c-.01 1.091-.036 2.21-.079 3.283-.014.38.273.7.644.715zm-4.95-5.373c-.004-.644-.015-1.294-.038-1.924h4.39c.02.607.032 1.251.036 1.924h-4.389z" transform="translate(-647 -1285) translate(137 1241) translate(510 44)"/>
                    <path d="M24.585 12.579c-.054-.16-.557-1.582-1.664-2.479-1.324-1.072-3.57-1.867-6.255-2.268 0 .636-.006 1.26-.016 1.848 2.251.36 4.117 1.012 5.16 1.858.576.467.96 1.277 1.084 1.64.062.187.094.379.094.57 0 1.4-1.599 2.538-3.565 2.538-.455 0-.898-.062-1.318-.183-.66-.192-1.844-.415-3.009-.415-.192 0-.382.006-.565.02-.63.045-1.283.068-1.941.068-.686 0-1.368-.026-2.027-.074-.203-.015-.413-.023-.628-.023-.995 0-2.191.164-3.047.417-.425.127-.875.19-1.337.19-1.966 0-3.566-1.138-3.566-2.538 0-.262.059-.52.173-.77.196-.42.958-1.327 1.707-1.789 1.04-.639 2.57-1.14 4.352-1.453.007-.395.011-.789.013-1.178-.027-.11-.04-.218-.04-.325 0-.108.013-.219.04-.328v-.03c-2.138.346-3.99.946-5.286 1.743-1.046.643-2.062 1.839-2.403 2.577-.222.48-.336.986-.343 1.506-.212 1.033-.536 3.529.76 5.326.893 1.24 2.345 1.88 4.325 1.907l16.618.009.061-.011c1.092-.207 1.906-.77 2.418-1.673.845-1.49.62-3.573.341-4.907.033-.198.057-.398.057-.602 0-.398-.065-.791-.193-1.171z" transform="translate(-647 -1285) translate(137 1241) translate(510 44)"/>
                </g>
            </g>
        </g>
    </g>
</svg>
