<svg xmlns="http://www.w3.org/2000/svg" width="16" height="15" viewBox="0 0 16 15">
    <g fill="none" fill-rule="evenodd">
        <g fill="#2C2C2C" fill-rule="nonzero" stroke="#2C2C2C" stroke-width=".8">
            <g>
                <g>
                    <g>
                        <path d="M12.497.5H1.5C.67.5 0 1.171 0 2v7.997c0 .829.671 1.5 1.5 1.5h1.774l-.272 2.444c-.03.275.168.522.442.552.142.016.283-.03.39-.125l3.19-2.871h5.473c.828 0 1.5-.671 1.5-1.5V2c0-.829-.672-1.5-1.5-1.5zm.5 9.497c0 .276-.224.5-.5.5H6.831c-.124 0-.243.046-.335.129l-2.356 2.12.188-1.693c.03-.275-.167-.522-.441-.553-.018-.002-.037-.003-.056-.003H1.5c-.276 0-.5-.224-.5-.5V2c0-.276.224-.5.5-.5h10.997c.276 0 .5.224.5.5v7.997h0z" transform="translate(-212 -205) translate(188 169) translate(25 32) translate(0 4)"/>
                    </g>
                </g>
            </g>
        </g>
    </g>
</svg>
