<svg xmlns="http://www.w3.org/2000/svg" width="23" height="23" viewBox="0 0 23 23">
    <g fill="none" fill-rule="evenodd">
        <g fill="#2C2C2C" fill-rule="nonzero" stroke="#2C2C2C" stroke-width=".6">
            <g>
                <path d="M4.958 8.478H3.325c.276-3.8 3.423-6.807 7.251-6.807 3.03 0 5.772 1.929 6.823 4.8.158.432.633.653 1.061.493.428-.16.647-.64.488-1.073-.626-1.711-1.738-3.176-3.217-4.235C14.22.573 12.436 0 10.576 0c-2.383 0-4.624.938-6.31 2.642-1.663 1.682-2.588 3.91-2.612 6.285C.666 9.505 0 10.585 0 11.819v2.84C0 16.5 1.483 18 3.305 18h1.653c.456 0 .826-.374.826-.835V9.313c0-.461-.37-.835-.826-.835zm-.827 7.851h-.826c-.911 0-1.652-.749-1.652-1.67v-2.84c0-.921.74-1.67 1.652-1.67h.826v6.18z" transform="translate(-131 -216) translate(132 217)"/>
                <path d="M17.757 8h-1.622c-.448 0-.81.377-.81.841v8.793c0 .464-.364.842-.811.842H12.04v.026c-.277-.517-.809-.868-1.42-.868-.895 0-1.621.754-1.621 1.683 0 .93.726 1.683 1.622 1.683.61 0 1.142-.35 1.419-.868v.027h2.473c1.34 0 2.432-1.133 2.432-2.525v-.042h.81c1.79 0 3.244-1.51 3.244-3.365v-2.861C21 9.51 19.545 8 17.757 8zm1.621 6.227c0 .927-.727 1.682-1.621 1.682h-.811V9.683h.81c.895 0 1.622.755 1.622 1.683v2.86z" transform="translate(-131 -216) translate(132 217)"/>
            </g>
        </g>
    </g>
</svg>
