<svg xmlns="http://www.w3.org/2000/svg" width="15" height="15" viewBox="0 0 15 15">
    <g fill="none" fill-rule="evenodd">
        <g>
            <g>
                <g transform="translate(-1204 -36) translate(1081 29) translate(123 7)">
                    <circle cx="7.5" cy="7.5" r="7.5" fill="#FFF"/>
                    <path fill="#14616D" fill-rule="nonzero" stroke="#14616D" stroke-width=".2" d="M7.065 9.69c.191 0 .35-.065.475-.193.125-.13.187-.29.187-.48h0v-.409c0-.014.006-.025.017-.033.01-.007.024-.014.038-.022.317-.051.609-.138.877-.259.269-.121.504-.283.707-.485.202-.203.358-.446.469-.729.11-.283.165-.608.165-.976 0-.493-.121-.934-.364-1.324s-.568-.7-.977-.932c-.408-.232-.866-.348-1.373-.348-.405 0-.785.075-1.142.226-.357.151-.668.362-.932.635-.155.154-.225.323-.21.507.015.184.11.342.287.475.169.125.336.163.502.115.165-.047.307-.123.425-.226.147-.125.31-.224.49-.298.18-.073.374-.11.58-.11.265 0 .502.055.711.165.21.11.376.262.497.453s.182.412.182.662c0 .338-.072.61-.215.816-.144.206-.337.355-.58.447-.242.092-.514.138-.816.138-.191 0-.35.064-.474.193-.125.129-.188.289-.188.48h0v.839c0 .19.063.35.188.48.125.128.283.193.474.193zm.088 1.975c.214 0 .377-.057.491-.171.114-.114.171-.278.171-.491h0v-.188c0-.213-.057-.377-.17-.49-.115-.115-.278-.172-.492-.172h0-.143c-.213 0-.377.057-.491.171-.114.114-.171.278-.171.491h0v.188c0 .213.057.377.171.49.114.115.278.172.491.172h.143z"/>
                </g>
            </g>
        </g>
    </g>
</svg>
