<svg xmlns="http://www.w3.org/2000/svg" width="60" height="60" viewBox="0 0 60 60">
    <g fill="none" fill-rule="evenodd">
        <g fill="#FF4848">
            <g>
                <g>
                    <g fill-opacity=".132" transform="translate(-770 -351) translate(624 351) translate(146)">
                        <circle cx="30" cy="30" r="30"/>
                    </g>
                    <g fill-rule="nonzero" transform="translate(-770 -351) translate(624 351) translate(146) translate(19 20)">
                        <path d="M21.7 16.557L12.66.972C12.315.372 11.671 0 10.98 0c-.692 0-1.336.371-1.681.97L.259 16.558c-.345.599-.345 1.343 0 1.942.346.599.99.97 1.682.97h18.077c.692 0 1.336-.371 1.682-.97.346-.599.346-1.343 0-1.943zm-1.114 1.3c-.117.202-.334.327-.568.327H1.941c-.233 0-.45-.125-.568-.327-.116-.202-.116-.453 0-.654l9.04-15.588c.116-.202.333-.327.567-.327.233 0 .45.125.568.328l9.038 15.585c.116.203.116.454 0 .656z"/>
                        <path d="M10.98 9.178c-.356 0-.644.288-.644.644v2.573c0 .355.288.643.644.643.355 0 .643-.288.643-.643V9.822c0-.356-.288-.644-.643-.644z"/>
                        <circle cx="10.98" cy="14.968" r="1"/>
                    </g>
                </g>
            </g>
        </g>
    </g>
</svg>
