<svg xmlns="http://www.w3.org/2000/svg" width="25" height="24" viewBox="0 0 25 24">
    <g fill="none" fill-rule="evenodd">
        <g fill="#FFDC64" fill-rule="nonzero">
            <g>
                <g>
                    <path d="M24.41 8.67l-8.097-.756-3.217-7.52c-.225-.526-.967-.526-1.192 0l-3.217 7.52L.59 8.67c-.567.053-.796.763-.369 1.141l6.11 5.404L4.543 23.2c-.125.56.475.998.964.706l6.993-4.18 6.993 4.18c.49.292 1.09-.147.964-.706l-1.788-7.986 6.11-5.404c.427-.378.198-1.088-.369-1.14z" transform="translate(-496.000000, -268.000000) translate(496.000000, 123.000000) translate(0.000000, 145.000000)"/>
                </g>
            </g>
        </g>
    </g>
</svg>
