<svg xmlns="http://www.w3.org/2000/svg" width="177" height="82" viewBox="0 0 177 82">
    <g fill="none" fill-rule="evenodd" opacity=".8">
        <g fill="#14616D">
            <g>
                <g>
                    <path d="M44.069 81.876s-4.19-5.474-13.97-7.249c-9.52-2.382-21.039-12.35-23.993-26.342-3.423-13.86 2.338-28.352 9.702-35.126 7.314-7.114 14.17-8.22 14.032-8.315.165.212-6.633 1.48-13.76 8.623-7.19 6.814-12.661 21.116-9.191 34.607 3.015 13.623 14.292 23.165 23.502 25.382 2.207.364 4.174.93 5.898 1.59 6.5 2.472 9 5.663 9 5.663l-1.22 1.167" transform="translate(-306 -288) translate(306 288)"/>
                    <path d="M27.278 65.967s2.666.983 3.55 3.264c1.105 2.85.627 5.236.627 5.236s-2.67-1.489-3.565-3.035c-1.256-2.168-.612-5.465-.612-5.465M22.6 78.487s2.695.887 4.662-.4c2.457-1.607 3.379-3.838 3.379-3.838s-2.978-.48-4.548.205c-2.206.962-3.492 4.033-3.492 4.033M23.129 63.51s2.417 1.436 2.909 3.798c.613 2.952-.226 5.168-.226 5.168s-2.342-1.924-2.96-3.579c-.868-2.324.277-5.387.277-5.387M16.627 74.739s2.461 1.349 4.563.465c2.625-1.103 3.87-3.086 3.87-3.086s-2.797-1.009-4.423-.634c-2.28.526-4.01 3.255-4.01 3.255M19.402 60.323s2.104 1.827 2.204 4.196c.123 2.962-1.038 4.947-1.038 4.947s-1.955-2.285-2.289-3.995c-.47-2.4 1.123-5.148 1.123-5.148M11.345 69.973s2.16 1.751 4.33 1.283c2.708-.586 4.225-2.273 4.225-2.273s-2.54-1.484-4.168-1.42c-2.285.092-4.387 2.41-4.387 2.41M16.24 56.457s1.741 2.146 1.461 4.451c-.35 2.88-1.785 4.585-1.785 4.585s-1.524-2.562-1.576-4.274c-.071-2.402 1.9-4.762 1.9-4.762M6.934 64.3s1.807 2.083 3.976 2.027c2.706-.07 4.436-1.423 4.436-1.423s-2.215-1.896-3.796-2.13c-2.22-.33-4.616 1.526-4.616 1.526M13.73 52.071s1.34 2.39.703 4.564c-.794 2.716-2.45 4.098-2.45 4.098s-1.064-2.75-.842-4.411c.31-2.332 2.588-4.25 2.588-4.25M3.503 57.943s1.414 2.34 3.515 2.682c2.624.426 4.509-.563 4.509-.563S9.689 57.829 8.2 57.314c-2.09-.724-4.698.63-4.698.63M12 47.306s.912 2.552-.047 4.533c-1.197 2.477-3.014 3.509-3.014 3.509s-.591-2.848-.114-4.411c.671-2.194 3.174-3.63 3.174-3.63M1.198 51.107s.993 2.517 2.965 3.23c2.466.89 4.443.28 4.443.28s-1.42-2.491-2.774-3.26c-1.904-1.08-4.634-.25-4.634-.25M11.045 42.312s.477 2.63-.762 4.366c-1.55 2.172-3.468 2.836-3.468 2.836s-.118-2.857.593-4.277c.993-1.996 3.637-2.925 3.637-2.925M10.911 37.184s.044 2.625-1.43 4.076c-1.838 1.813-3.795 2.103-3.795 2.103s.34-2.778 1.25-4.02c1.278-1.745 3.975-2.159 3.975-2.159M11.595 31.947s-.374 2.541-2.026 3.672c-2.063 1.415-3.997 1.338-3.997 1.338s.768-2.619 1.845-3.652c1.507-1.45 4.178-1.358 4.178-1.358M13.128 26.839s-.764 2.384-2.538 3.174c-2.217.99-4.07.562-4.07.562s1.158-2.387 2.36-3.187c1.685-1.124 4.248-.549 4.248-.549M15.49 22.102s-1.116 2.162-2.953 2.6c-2.295.55-4.016-.2-4.016-.2s1.495-2.093 2.781-2.646c1.806-.778 4.187.246 4.187.246M6.76 16.288s-1.047 2.201-.361 4.08c.857 2.349 2.4 3.461 2.4 3.461s.784-2.5.493-3.954c-.41-2.04-2.531-3.587-2.531-3.587M18.608 17.884s-1.42 1.882-3.264 1.97c-2.301.112-3.844-.927-3.844-.927s1.777-1.746 3.105-2.045c1.867-.421 4.003 1.002 4.003 1.002M11.104 10.679s-1.36 1.933-.996 3.872c.456 2.423 1.767 3.778 1.767 3.778s1.154-2.27 1.104-3.725c-.07-2.044-1.875-3.925-1.875-3.925M22.332 14.348s-1.671 1.558-3.465 1.306c-2.238-.313-3.563-1.596-3.563-1.596s1.992-1.361 3.323-1.408c1.868-.066 3.705 1.698 3.705 1.698M16.233 6.025s-1.621 1.617-1.577 3.556c.054 2.42 1.106 3.969 1.106 3.969s1.474-1.981 1.656-3.395c.257-1.986-1.185-4.13-1.185-4.13M26.548 11.578s-1.86 1.2-3.549.63c-2.113-.711-3.188-2.192-3.188-2.192s2.14-.95 3.43-.751c1.813.278 3.307 2.313 3.307 2.313M21.983 2.434s-1.82 1.265-2.086 3.143c-.33 2.346.438 4.033.438 4.033s1.737-1.644 2.137-2.975c.562-1.87-.49-4.2-.49-4.2M31.074 9.658s-1.985.818-3.525-.04C25.622 8.547 24.82 6.92 24.82 6.92s2.215-.526 3.43-.099c1.704.6 2.823 2.836 2.823 2.836M28.12 0s-1.96.888-2.511 2.653c-.693 2.203-.22 3.97-.22 3.97s1.938-1.267 2.535-2.479C28.764 2.442 28.12 0 28.12 0M28.206 5.438s1.466.888 2.765.41c1.624-.599 2.427-1.773 2.427-1.773s-1.676-.688-2.674-.507c-1.4.257-2.518 1.87-2.518 1.87M132.674 81.876s4.19-5.474 13.97-7.249c9.52-2.382 21.038-12.35 23.993-26.342 3.423-13.86-2.338-28.352-9.702-35.126-7.315-7.114-14.17-8.22-14.031-8.315-.165.212 6.632 1.48 13.76 8.623 7.189 6.814 12.661 21.116 9.19 34.607-3.014 13.623-14.292 23.165-23.503 25.382-2.207.364-4.174.93-5.897 1.59-6.5 2.472-9 5.663-9 5.663l1.22 1.167" transform="translate(-306 -288) translate(306 288)"/>
                    <path d="M149.462 65.967s-2.666.983-3.55 3.264c-1.104 2.85-.627 5.236-.627 5.236s2.671-1.489 3.566-3.035c1.257-2.168.611-5.465.611-5.465M154.14 78.487s-2.695.887-4.662-.4c-2.455-1.607-3.378-3.838-3.378-3.838s2.978-.48 4.548.205c2.205.962 3.493 4.033 3.493 4.033M153.613 63.51s-2.419 1.436-2.909 3.798c-.614 2.952.226 5.168.226 5.168s2.341-1.924 2.958-3.579c.869-2.324-.275-5.387-.275-5.387M160.114 74.739s-2.461 1.349-4.563.465c-2.625-1.103-3.87-3.086-3.87-3.086s2.796-1.009 4.422-.634c2.282.526 4.01 3.255 4.01 3.255M157.34 60.323s-2.105 1.827-2.204 4.196c-.125 2.962 1.037 4.947 1.037 4.947s1.955-2.285 2.288-3.995c.47-2.4-1.121-5.148-1.121-5.148M165.396 69.973s-2.161 1.751-4.33 1.283c-2.708-.586-4.224-2.273-4.224-2.273s2.54-1.484 4.167-1.42c2.285.092 4.387 2.41 4.387 2.41M160.501 56.457s-1.742 2.146-1.46 4.451c.347 2.88 1.784 4.585 1.784 4.585s1.523-2.562 1.576-4.274c.071-2.402-1.9-4.762-1.9-4.762M169.808 64.3s-1.808 2.083-3.976 2.027c-2.707-.07-4.438-1.423-4.438-1.423s2.217-1.896 3.796-2.13c2.22-.33 4.618 1.526 4.618 1.526M163.012 52.071s-1.34 2.39-.705 4.564c.795 2.716 2.45 4.098 2.45 4.098s1.065-2.75.842-4.411c-.31-2.332-2.587-4.25-2.587-4.25M173.238 57.943s-1.415 2.34-3.515 2.682c-2.624.426-4.51-.563-4.51-.563s1.839-2.233 3.327-2.748c2.092-.724 4.698.63 4.698.63M164.743 47.306s-.915 2.552.045 4.533c1.197 2.477 3.014 3.509 3.014 3.509s.59-2.848.114-4.411c-.671-2.194-3.173-3.63-3.173-3.63M175.543 51.107s-.993 2.517-2.966 3.23c-2.465.89-4.441.28-4.441.28s1.418-2.491 2.772-3.26c1.905-1.08 4.635-.25 4.635-.25M165.696 42.312s-.477 2.63.762 4.366c1.55 2.172 3.468 2.836 3.468 2.836s.117-2.857-.592-4.277c-.995-1.996-3.638-2.925-3.638-2.925M176.725 44.008s-.56 2.611-2.352 3.66c-2.237 1.308-4.243 1.08-4.243 1.08s.976-2.663 2.161-3.652c1.666-1.39 4.434-1.088 4.434-1.088M165.83 37.184s-.043 2.625 1.43 4.076c1.838 1.813 3.794 2.103 3.794 2.103s-.338-2.778-1.25-4.02c-1.277-1.745-3.975-2.159-3.975-2.159M176.74 36.808s-.124 2.622-1.686 3.961c-1.953 1.672-3.923 1.817-3.923 1.817s.518-2.748 1.504-3.919c1.388-1.644 4.106-1.859 4.106-1.859M165.145 31.947s.374 2.541 2.027 3.672c2.063 1.415 3.996 1.338 3.996 1.338s-.767-2.619-1.844-3.652c-1.508-1.45-4.179-1.358-4.179-1.358M175.807 29.604s.295 2.553-1 4.13c-1.619 1.97-3.497 2.47-3.497 2.47s.063-2.747.83-4.057c1.077-1.84 3.667-2.543 3.667-2.543M163.612 26.839s.766 2.384 2.539 3.174c2.216.99 4.07.562 4.07.562s-1.158-2.387-2.36-3.187c-1.686-1.124-4.249-.549-4.249-.549M173.352 22.943s.689 2.41-.312 4.169c-1.25 2.196-2.982 3.021-2.982 3.021s-.375-2.661.157-4.067c.748-1.973 3.137-3.123 3.137-3.123M161.251 22.102s1.115 2.162 2.953 2.6c2.295.55 4.016-.2 4.016-.2s-1.496-2.093-2.782-2.646c-1.805-.778-4.187.246-4.187.246M169.98 16.288s1.049 2.201.363 4.08c-.857 2.349-2.4 3.461-2.4 3.461s-.785-2.5-.494-3.954c.41-2.04 2.53-3.587 2.53-3.587M158.133 17.884s1.42 1.882 3.263 1.97c2.303.112 3.845-.927 3.845-.927s-1.777-1.746-3.106-2.045c-1.865-.421-4.002 1.002-4.002 1.002M165.636 10.679s1.36 1.933.996 3.872c-.455 2.423-1.767 3.778-1.767 3.778s-1.153-2.27-1.103-3.725c.07-2.044 1.874-3.925 1.874-3.925M154.41 14.348s1.67 1.558 3.463 1.306c2.24-.313 3.564-1.596 3.564-1.596s-1.992-1.361-3.323-1.408c-1.868-.066-3.705 1.698-3.705 1.698M160.508 6.025s1.621 1.617 1.576 3.556c-.054 2.42-1.105 3.969-1.105 3.969s-1.474-1.981-1.655-3.395c-.258-1.986 1.184-4.13 1.184-4.13M150.193 11.578s1.86 1.2 3.549.63c2.113-.711 3.188-2.192 3.188-2.192s-2.14-.95-3.43-.751c-1.814.278-3.307 2.313-3.307 2.313M154.758 2.434s1.82 1.265 2.086 3.143c.332 2.346-.438 4.033-.438 4.033s-1.737-1.644-2.137-2.975c-.563-1.87.489-4.2.489-4.2M145.666 9.658s1.986.818 3.526-.04c1.926-1.071 2.727-2.697 2.727-2.697s-2.213-.526-3.43-.099c-1.703.6-2.823 2.836-2.823 2.836M148.62 0s1.96.888 2.513 2.653c.691 2.203.219 3.97.219 3.97s-1.938-1.267-2.535-2.479c-.838-1.702-.196-4.144-.196-4.144M148.535 5.438s-1.466.888-2.765.41c-1.625-.599-2.427-1.773-2.427-1.773s1.677-.688 2.674-.507c1.4.257 2.518 1.87 2.518 1.87" transform="translate(-306 -288) translate(306 288)"/>
                    <text font-family="Dosis-Bold, Dosis" font-size="14" font-weight="bold" transform="translate(-306 -288) translate(306 288)">
                        <tspan x="51.911" y="53.418">REVE READY</tspan>
                    </text>
                    <g>
                        <path d="M4.389 7.289L0 16.734 14.886 16.734 21.726 1.934 28.664 16.734 31.175 16.734 23.224 0.131 7.793 0 6.619 2.544 4.389 2.544z" transform="translate(-306 -288) translate(306 288) translate(72.108 20.026)"/>
                        <path fill-rule="nonzero" stroke="#14616D" stroke-width=".8" d="M23.727 10.014c-.11-.121-.287-.121-.398 0l-2.087 2.361-.942-1.066c-.114-.124-.295-.12-.405.008-.107.125-.107.324 0 .45l1.145 1.295c.111.126.293.126.404 0l2.29-2.59c.11-.129.107-.334-.007-.458z" transform="translate(-306 -288) translate(306 288) translate(72.108 20.026)"/>
                    </g>
                    <path d="M.018 44.008s.559 2.611 2.35 3.66c2.236 1.308 4.243 1.08 4.243 1.08s-.976-2.663-2.16-3.652C2.784 43.706.018 44.008.018 44.008M0 36.808s.124 2.622 1.688 3.961c1.951 1.672 3.922 1.817 3.922 1.817s-.518-2.748-1.504-3.919C2.718 37.023 0 36.808 0 36.808M1.124 29.593s-.296 2.553 1 4.13c1.618 1.97 3.497 2.47 3.497 2.47s-.064-2.747-.83-4.057c-1.077-1.84-3.667-2.543-3.667-2.543M3.394 22.656s-.689 2.411.313 4.169c1.249 2.196 2.981 3.022 2.981 3.022s.375-2.662-.156-4.067c-.749-1.973-3.138-3.124-3.138-3.124" transform="translate(-306 -288) translate(306 288)"/>
                </g>
            </g>
        </g>
    </g>
</svg>
