<svg xmlns="http://www.w3.org/2000/svg" xmlns:xlink="http://www.w3.org/1999/xlink" width="366" height="254" viewBox="0 0 366 254">
    <defs>
        <path id="q1361emkda" d="M2.59 32.773L.257 10.998l12.996-2.725L30.097 4.23 38.621.02c.707 9.547 1.466 15.006 2.275 16.376.808 1.371 1.591 5.887 2.349 13.548-8.473.189-14.76.45-18.858.784-3.711 0-10.977.681-21.797 2.045z"/>
        <path id="5umpdeh7nc" d="M.973 11.139c-.06 8.953.34 15.705 1.2 20.257.712 2.894 1.73 8.186 3.054 15.876.17.99 1.048 1.7 2.051 1.66 6.293-.255 12.433-.72 18.42-1.396 5.208-.588 15.636-1.697 31.285-3.328L49.872 0C34.964 2.812 26.48 4.752 24.42 5.82 21.33 7.424 13.406 7.36 9.171 9.084c-1.535.462-4.268 1.147-8.198 2.056z"/>
    </defs>
    <g fill="none" fill-rule="evenodd">
        <g>
            <g transform="translate(-27 -292) translate(27 292)">
                <path fill="#F5F5F5" d="M27.379 196.683c-17.233-29.21-22.959-47.67-17.177-55.383 4.147-5.532 4.673-19.13 1.282-33.912-3.7-16.13-12.421-27.564-4.101-33.77 14.062-5.295 10.67-34.141 32.289-30.709 21.619 3.433 55.437-6.063 59.828-14.641.372-.14 53.221 10.309 96.859-15.617 43.637-25.926 77.209 7.886 83.37 11.751 6.163 3.866 11.542 0 13.414 0 1.873 0 20.629 40.99 32.055 47.376 11.426 6.387 34.39.862 36.837 19.671 2.448 18.809-26.418 15.45-24.043 25.45.946 3.981 3.385 15.327 2.916 29.713-.708 21.739-5.89 43.749-15.71 53.036-16.32 15.432-99.732 8.721-107.037 8.721-3.204 0-32.328-.17-86.333-3.54-18.74-1.168-53.555-3.884-104.45-8.146z"/>
                <path stroke="#B1B1B1" stroke-linecap="round" d="M0 202.612c29.635-7.402 28.623-7.813 68.996-1.573 17.55 2.712 68.373-3.62 104.59-4.064M200.858 199.405c27.558.503 55.115 1.928 82.675 1.51 10.756-.164 20.557-2.288 31.286-1.51 21.275 1.542 32.309 6.532 50.34 3.207"/>
                <path fill="#333" d="M295.102 236.079c-2.944.282-7.134.048-10.924.37-10.295.877-19.556 3.277-.288 3.026 1.657-.021 19.816.48 34.526 1.025 18.557.687 19.47-2.025-23.763-4.421-1.888-.105-1.739-.105.449 0z"/>
                <path fill="#E7E7E7" d="M295.97 150.742c-7.014-13.831-10.521-21.454-10.521-22.867 0-2.12-4.24-7.768-5.878 0-1.091 5.178 1.642 15.202 8.2 30.073-2.236 2.254-4.16 2.466-5.776.638-2.424-2.742-3.06-10.79-7.604-5.715-4.543 5.077-7.528-3.994-8.388.86-.86 4.855 2.64 19.678 0 19.678s-4.677-1.323-3.658 6.107c.678 4.953 4.923 14.432 12.734 28.436l-3.964-1.226c6.602 10.343 11.777 16.865 15.523 19.565.038.151-5.183 2.2 0 7.098 5.184 4.898 6.26 5.27 13.134 5.27 6.874 0 4.831-1.206 9.084 0 4.253 1.205 6.502 0 9.583 0 3.08 0 10.104-10.437 11.312-10.437 1.208 0-.27-2.218-3.15-1.109-2.879 1.11 10.691-7.33 1.265-8.38.065-.1 15.512-6.08 12.226-12.79-.052-.007-1.636-1.5-7.919 3.527.072.111-1.432-4.988-4.978-5.092 0 0 23.68-24.377 24.66-33.915-.07.266-17.704 12.1-29.998 30.314-5.711 9.652 5.254-22.195 7.14-30.314 3.67-16.815 22.422-38.475 16.905-45.434-3.678-4.639-11.515 3.354-23.51 23.978-1.616 2.388-.213-2.405 4.21-14.379 6.633-17.96 16.586-20.916 9.49-26.809-.03-.073 12.042-21.28-8.226-6.9-6.9 2.27-12.27 11.95-16.106 29.036-2.75 4.405-6.068-2.452-9.957-20.572-4.243-26.172-8.489-30.984-11.734-14.95-2.253 9.737-.286 28.507 5.9 56.309z"/>
                <path stroke="#5E5E5E" stroke-linecap="round" d="M283.008 169.015l1.498-2.264c1.226 2.692 1.84 5.077 1.84 7.155 0 2.077.278 3.588.835 4.531 1.741-1.051 2.873-1.9 3.395-2.547.12.138 1.357.596 3.623 7.042 2.267 6.445 3.792 1.896 4.888 5.364.73 2.312 1.01 6.708.838 13.187M331.529 139.925c-7.175 16.385-11.395 31.115-12.662 44.192"/>
                <path fill="#E9E9E9" d="M30.172 11h18.5v19h-18.5c-5.247 0-9.5-4.253-9.5-9.5s4.253-9.5 9.5-9.5z"/>
                <path fill="#E9E9E9" d="M52.672 0c8.284 0 15 6.716 15 15v9h-30v-9c0-8.284 6.716-15 15-15z"/>
                <path fill="#E9E9E9" d="M44.672 11h22.5c5.247 0 9.5 4.253 9.5 9.5s-4.253 9.5-9.5 9.5h-22.5V11z"/>
                <rect width="53" height="16" x="293.672" y="41" fill="#E9E9E9" rx="8"/>
                <path fill="#E9E9E9" d="M314.07 30.579c6.982 0 12.642 5.66 12.642 12.642V45h-25.285v-1.779c0-6.982 5.66-12.642 12.643-12.642z"/>
                <path fill="#F99F27" d="M87.753 226.83c2.5-.886 4.783-1.259 7.426-1.487 5.036-.436 13.942 3.011 15.967 1.017-.232-4.18-1.678-19.609-2.547-28.414-1.46-9.128.261-10.203-2.13-19.197-2.39-8.993.053-35.638-1.169-37.83-.814-1.462-7.316-.977-19.507 1.454l1.96 84.458z"/>
                <path fill="#FEBE55" d="M71.324 234.061c5.201-2.266 14.795.02 14.774 0 2.026-2.188 3.3-18.213 3.3-21.077 0-2.863 1.498-9.096 1.498-11.75 0-2.653 3.79-16.015 2.597-21.348-1.193-5.332-1.073-14.603-2.597-17.59-1.524-2.989.227-13.943-1.498-17.983-1.724-4.04-27.67-1.619-27.654-1.705-5.06 15.143 5.06 31.104 6.91 41.19 0 10.188-4.184 16.598-5.378 25.057-1.116 7.9-1.021 15.925-1.532 23.888 2.92 2.39 6.112 2.829 9.58 1.318z"/>
                <path stroke="#353535" stroke-linecap="round" d="M93.57 225.79l-.111 4.659M99.142 225.856l-1.3 5.534"/>
                <path fill="#353535" d="M61.744 142.608c-3.463-7.9-1.58-15.422-1.402-22.336.55-21.406 16.953-29.14 38.127-26.786 5.188.811 8.084 3.458 11.692 5.91 5.09 3.46 10.512 7.102 16.376 9.625-.162-3.26.237-5.893 1.196-7.898s1.615-4.55 1.968-7.637c4.07.817 6.89 1.226 8.454 1.226 2.348 0 5.635 1.483 6.967 2.304.888.547 2.763 1.34 5.626 2.38-4.64 11.26-7.897 17.826-9.776 19.695-1.878 1.87-4.039 5.499-6.483 10.886-4.984 3.04-9.335 3.8-13.056 2.28-3.72-1.52-7.843-4.442-12.367-8.764-1.528 10.25-3.194 16.621-4.998 19.115-.023.039-14.131.039-42.324 0z"/>
                <path stroke="#353535" stroke-linecap="round" d="M64.672 72.48c1.042-.344 2.13-.172 3.171-.516"/>
                <path fill="#B0B0B0" d="M86.533 87.113l-.658 8.899c-.127 1.713 1.16 3.205 2.873 3.331.076.006.153.009.23.009 1.89 0 3.464-1.453 3.615-3.338l.511-6.375-6.57-2.526z"/>
                <path fill="#353535" d="M86.533 87.113c1.828 2.893 3.95 4.57 6.365 5.032-.006.033.063-1.078.206-3.336l-6.57-1.696z"/>
                <path fill="#B0B0B0" d="M79.762 72.196c.469 5.822 3.042 12.134 7.34 15.39 10.48 6.875 28.316 5.52 25.045-10.178l-5.162-2.289c-17.081-2.58-25.823-3.713-26.225-3.397-.72.019-1.052.177-.998.474z"/>
                <path stroke="#353535" stroke-linecap="round" d="M103.39 83.653c.415 1.261-.226 1.79-1.925 1.585M94.898 80.999c.74-1.191 1.611-1.302 2.612-.334M94.672 78.856c1.832-.95 3.269-.95 4.31 0M74.416 70.54c.094-8.26 5.812-11.189 12.687-6.425M77.5 72.34c-2.804 4.814-.485 9.533 5.848 7.057"/>
                <g stroke="#353535" stroke-linecap="round">
                    <path d="M0 .674L.99.674 1.165 1.642M1.781.045L1.024.621" transform="translate(78.672 76.086)"/>
                </g>
                <path stroke="#353535" stroke-linecap="round" d="M79.221 73.839c2.128.71 3.504.338 4.127-1.117M106.985 75.12c-3.415 2.548-5.71 2.015-6.887-1.6 0-.076-6.374 5.855-14.47.319-5.094-3.859-4.407-7.518 4.438-8.745 1.072-2.208 3.72-5.285 8.774-.858.882-.64 4.96-3.034 9.915-3.215 8.132-.297 17.785 2.556 13.333 8.098.124.121 5.502 1.137 5.502 3.103M67.067 78.933c.95-1.818 2.117-2.341 3.5-1.57M124.612 62.228L127.083 61M127.083 66.243c2.081-.137 3.122-.016 3.122.362M99.133 87.586c.971 1.355 2.159 1.584 3.563.688M136.722 94.173c4.682-11.648 5.85-6.856.828-14.773M144.748 79.22l9.565-.918M144.586 84.19c5.387 3.572 6.162 2.77 10.855-2.417M71.854 233.867L71.286 239.366M77.212 233.419c-.43 2.624-.645 4.629-.645 6.015"/>
                <path fill="#E9E9E9" d="M159.669 235.825c21.591-.21 43.189-1.193 64.774-.63 5.875.152 10.397.79 16.166 3.75l5.085 2.798c-.398 1.738-3.312 1.468-5.085 1.667-3.393.382-7.03-1.096-10.244.055-1.109.397 3.124 2.41 2.045 2.881-6.784 2.968-24.083.794-29.726.911-15.19.316-30.373 1.04-45.539 1.968-12.02.735-23.959 2.877-36 3.02-3.136.037-11.87-1.069-9.073-2.487 20.561-10.428 28.78-5.043 48.374-10.812.771-.228-.74-1.428-1.11-2.142l.333-.98z"/>
                <path fill="#FEBE55" d="M155.831 151.38c-1.228 30.988-7.962 61.58-9.943 92.6h6.18c.341-8.388.752-14.053 1.232-16.994.72-4.411 4.686-22.134 4.686-30.334 0-5.466 1.67-20.34 5.01-44.62 8.673-42.54 13.01-65.09 13.01-67.65.103.145-2.646.145-8.249 0-3.79 17.754-6.638 32.115-8.546 43.083-.975 5.481-2.102 13.453-3.38 23.915z"/>
                <path fill="#353535" d="M155.831 151.38L155.831 154.92 162.481 154.92 163.314 150.541z"/>
                <path fill="#B0B0B0" d="M146.094 141.967l4.098-.98c.755-3.857 3.517-6.311 8.286-7.365 4.77-1.053 7.294-1.393 7.573-1.02 2.802 2.897 3.941 4.647 3.416 5.252-.526.605-.992 1.352-1.4 2.242.88.96.88 2.292 0 3.993-1.317 2.55 1.319 4.994 0 4.994-1.317 0-4.693 4.003-8.73 2.682-.955-.064-5.275-.471-6.664-1.224-.747-.536-3.683-.536-8.807 0l2.228-8.574z"/>
                <path stroke="#979797" d="M81.201 106.54c31.224 13.148 21.525 34.236 65.53 32.924l-4.587 15.456c-25.129-.642-43.284-7.464-54.465-20.467"/>
                <path fill="#FEBE55" d="M166.61 134.223c6.264-31.051 9.396-47.665 9.396-49.841.103.145-2.646.145-8.249 0-3.79 17.754-6.638 32.115-8.546 43.083-.34 1.915-1.078 3.9-1.078 6.658-.012 1.35 8.081 2.205 8.477.1z"/>
                <path fill="#E7E7E7" d="M172.127 107.232c5.78 42.793 12.638 84.848 17.65 127.845h4.004c-10.458-92.481-16.634-141.275-18.53-146.383-1.894-5.108-2.936 1.071-3.124 18.538z"/>
                <path fill="#333" d="M167.84 84.196c-1.195 6.92-2.946 4.762 5.613 4.745h1.973l.633-4.56-8.22-.185z"/>
                <path stroke="#000" stroke-linecap="round" stroke-width="1.5" d="M158.16 188.439l28.272-2.736"/>
                <path stroke="#353535" stroke-linecap="round" d="M146.45 65.034c1.85-4.793 2.875-4.758 4.412-2.678M146.731 85.904L143.037 95.274"/>
                <path fill="#353535" d="M154.262 78.444l-36.686 2.661c-4.08.217-6.631.766-7.657 1.647-1.538 1.323-6.337-3.024-4.71-5.933.775-1.382 9.304-2.294 25.03-6.637 4.223-1.166 11.677-3.806 22.361-7.92l1.662 16.182z"/>
                <path fill="#F5F5F5" d="M138.143 79.664c-2.118-9.393.33-5.752 6.83.064"/>
                <g transform="translate(151.672 49)">
                    <mask id="zwyvlw3j7b" fill="#fff">
                        <use xlink:href="#q1361emkda"/>
                    </mask>
                    <path stroke="#A3A3A3" d="M39.065-.757l-9.139 4.513-16.783 4.03-13.431 2.816 2.435 22.73c11.068-1.401 18.482-2.104 22.28-2.106 4.093-.333 10.369-.594 18.829-.782l.537-.012c-.015-.177-.033-.356-.05-.537-.77-7.786-1.596-12.36-2.417-13.753-.818-1.387-1.546-7.033-2.261-16.899z"/>
                    <path fill="#D7D7D7" d="M2.089 27.431c2.691-.484 10.701-2.026 11.164-2.52 5.37-5.744 6.498-16.785 10.17-17.159.874-.089.892 16.942 3.072 17.158 3.027-.422 6.698-1.62 8.02-2.898 3.208-3.1 1.53-10.367 2.755-25.012l8.895 38.574L-2 37.5l4.089-10.069z" mask="url(#zwyvlw3j7b)"/>
                </g>
                <path fill="#FEBE55" d="M164.925 51.778c.666 20.89 1.61 31.759 2.832 32.604-.001-.033 2.749-.033 8.252 0 .235-17.652-.353-28.936-1.765-33.851.078-.067-3.028.348-9.32 1.247z"/>
                <g transform="translate(189.395 34)">
                    <mask id="yksake13kd" fill="#fff">
                        <use xlink:href="#5umpdeh7nc"/>
                    </mask>
                    <path stroke="#A3A3A3" d="M50.285-.587c-15.307 2.88-24 4.878-26.095 5.964-1.522.789-4.248 1.15-7.101 1.543-2.91.401-5.95.828-8.082 1.69-1.533.46-4.248 1.14-8.534 2.525-.06 8.996.345 15.78 1.214 20.381.693 2.813 1.674 7.898 2.946 15.254l.1.587c.107.619.435 1.15.893 1.52.457.37 1.045.58 1.672.554 6.305-.254 12.457-.72 18.456-1.398 5.26-.594 15.847-1.72 31.76-3.378L50.284-.587z"/>
                    <path fill="#D7D7D7" d="M5.277 42.277c24.76-4.453 37.116-2.417 41.852-6.995 4.14-4 1.974-13.38 3.555-32.282l11.481 49.786L0 55.272l5.277-12.995z" mask="url(#yksake13kd)"/>
                </g>
                <path fill="#8F8F8F" d="M250.224 32.283c16.47 15.492 17.967 30.31 7.583 46.584"/>
                <path fill="#353535" d="M239.793 31.531c-.423 3.303.368 6.388.769 9.694.88 7.254 1.834 12.55 2.527 19.242.627 6.051 1.487 12.442 2.873 18.397 1.023 4.394 8.371 2.338 11.645 1.138 1.514-.903.532-3.534.295-5.281-2.022-14.93-4.158-29.86-7.057-44.645-.284-1.447-10.628-1.848-11.052 1.455z"/>
                <path stroke="#FFF" stroke-linecap="round" stroke-width="2" d="M261.197 54.077c.639 4.66.041 9.247-1.793 13.763"/>
                <path fill="#353535" d="M146.391 141.943L146.391 150.189 143.866 150.541z"/>
                <path stroke="#979797" stroke-width=".8" d="M70.328 247.578c-.516 3.53.51 5.073 3.078 4.626 3.854-.67 13.926.465 16.97.465 1.64 0 7.881-.313 9.692-2.702.788-1.04.35-1.837-1.313-2.389"/>
                <path fill="#353535" d="M68.672 239.325l1.06 7.251c.109 2.43 1.713 3.646 4.812 3.646h14.763c3.535 0 8.763-.194 10.26-1.481 1.367-1.922-2.686-2.414-11.16-5.683-1.77-.683-4.853-1.927-9.25-3.733-.885-.404-1.875.011-2.97 1.247-1.643 1.855-4.734-.597-5.595-1.247-.574-.433-1.214-.433-1.92 0z"/>
                <path fill="#F99F27" d="M92.3 240.2c-.498 2.438.538 3.433 3.106 2.986 3.854-.67 13.926.466 16.97.466 1.64 0 7.881-.313 9.692-2.702.788-1.04.35-1.837-1.313-2.39l-28.454-.528v2.168z"/>
                <path fill="#353535" d="M90.672 230.325l1.06 7.251c.109 2.43 1.713 3.646 4.812 3.646h14.763c3.535 0 8.763-.194 10.26-1.481 1.367-1.922-2.686-2.414-11.16-5.683-1.77-.683-4.853-1.927-9.25-3.733-.885-.404-1.875.011-2.97 1.247-1.643 1.855-4.734-.597-5.595-1.247-.574-.433-1.214-.433-1.92 0z"/>
            </g>
        </g>
    </g>
</svg>
